HIERARCHY
ROOT Hips
{
	OFFSET	0.00	0.00	0.00
	CHANNELS 6 Xposition Yposition Zposition Zrotation Xrotation Yrotation
	JOINT LeftUpLeg
	{
		OFFSET	 0.126116	-0.065224	 0.014019
		CHANNELS 3 Zrotation Xrotation Yrotation
		JOINT LeftLeg
		{
			OFFSET	 0.000000	 0.569914	 0.000000
			CHANNELS 3 Zrotation Xrotation Yrotation
			JOINT LeftFoot
			{
				OFFSET	 0.000000	 0.544423	 0.000000
				CHANNELS 3 Zrotation Xrotation Yrotation
				JOINT LeftToeBase
				{
					OFFSET	 0.000000	 0.207117	 0.000000
					CHANNELS 3 Zrotation Xrotation Yrotation
					End Site
					{
						OFFSET	 0.000000	 0.207117	 0.000000
					}
				}
			}
		}
	}
	JOINT RightUpLeg
	{
		OFFSET	-0.124023	-0.065224	 0.008373
		CHANNELS 3 Zrotation Xrotation Yrotation
		JOINT RightLeg
		{
			OFFSET	 0.000000	 0.570047	 0.000000
			CHANNELS 3 Zrotation Xrotation Yrotation
			JOINT RightFoot
			{
				OFFSET	 0.000000	 0.544354	 0.000000
				CHANNELS 3 Zrotation Xrotation Yrotation
				JOINT RightToeBase
				{
					OFFSET	 0.000000	 0.207540	 0.000000
					CHANNELS 3 Zrotation Xrotation Yrotation
					End Site
					{
						OFFSET	 0.000000	 0.207540	 0.000000
					}
				}
			}
		}
	}
	JOINT Spine
	{
		OFFSET	 0.000184	 0.117403	 0.007763
		CHANNELS 3 Zrotation Xrotation Yrotation
		JOINT Spine1
		{
			OFFSET	 0.000000	 0.137269	 0.000000
			CHANNELS 3 Zrotation Xrotation Yrotation
			JOINT Spine2
			{
				OFFSET	 0.000000	 0.156879	 0.000000
				CHANNELS 3 Zrotation Xrotation Yrotation
				JOINT LeftShoulder
				{
					OFFSET	 0.080501	 0.160143	 0.002496
					CHANNELS 3 Zrotation Xrotation Yrotation
					JOINT LeftArm
					{
						OFFSET	 0.000000	 0.164363	 0.000000
						CHANNELS 3 Zrotation Xrotation Yrotation
						JOINT LeftForeArm
						{
							OFFSET	 0.000000	 0.364576	 0.000000
							CHANNELS 3 Zrotation Xrotation Yrotation
							JOINT LeftHand
							{
								OFFSET	 0.000000	 0.360812	 0.000000
								CHANNELS 3 Zrotation Xrotation Yrotation
								JOINT LeftHandIndex1
								{
									OFFSET	 0.000000	 0.086006	 0.000000
									CHANNELS 3 Zrotation Xrotation Yrotation
									JOINT LeftHandIndex2
									{
										OFFSET	 0.000000	 0.047237	 0.000000
										CHANNELS 3 Zrotation Xrotation Yrotation
										JOINT LeftHandIndex3
										{
											OFFSET	-0.004284	 0.038165	 0.000551
											CHANNELS 3 Zrotation Xrotation Yrotation
											End Site
											{
												OFFSET	-0.004284	 0.038165	 0.000551
											}
										}
									}
								}
							}
						}
					}
				}
				JOINT Neck
				{
					OFFSET	 0.000000	 0.176489	 0.000000
					CHANNELS 3 Zrotation Xrotation Yrotation
					JOINT Head
					{
						OFFSET	 0.000000	 0.077941	 0.001747
						CHANNELS 3 Zrotation Xrotation Yrotation
						End Site
						{
							OFFSET	 0.000000	 0.077941	 0.001747
						}
					}
				}
				JOINT RightShoulder
				{
					OFFSET	-0.080363	 0.159706	-0.000306
					CHANNELS 3 Zrotation Xrotation Yrotation
					JOINT RightArm
					{
						OFFSET	 0.000000	 0.164196	 0.000000
						CHANNELS 3 Zrotation Xrotation Yrotation
						JOINT RightForeArm
						{
							OFFSET	 0.000000	 0.365611	 0.000000
							CHANNELS 3 Zrotation Xrotation Yrotation
							JOINT RightHand
							{
								OFFSET	 0.000000	 0.360648	 0.000000
								CHANNELS 3 Zrotation Xrotation Yrotation
								JOINT RightHandIndex1
								{
									OFFSET	 0.000000	 0.069977	 0.000000
									CHANNELS 3 Zrotation Xrotation Yrotation
									JOINT RightHandIndex2
									{
										OFFSET	 0.000000	 0.052305	 0.000000
										CHANNELS 3 Zrotation Xrotation Yrotation
										JOINT RightHandIndex3
										{
											OFFSET	 0.009002	 0.042196	 0.000782
											CHANNELS 3 Zrotation Xrotation Yrotation
											End Site
											{
												OFFSET	 0.009002	 0.042196	 0.000782
											}
										}
									}
								}
							}
						}
					}
				}
			}
		}
	}
}
MOTION
Frames:    8
Frame Time: 0.03333334
-0.039441	 1.230964	 0.013081	-2.425483	-5.917136	 145.532300	-155.685700	 12.844680	-55.322630	 7.868801	-27.214040	 1.534087	-21.046180	 69.102210	 13.058530	 1.135457	 26.328700	-2.649191	 176.550800	 24.335910	 3.600944	-2.724411	-32.102920	-4.268571	-28.265560	 70.822990	 32.102600	-1.274714	 28.184090	 2.704496	 8.416101	 2.653009	-14.715990	 7.301195	 6.644775	-4.829906	-2.174401	-6.817767	 10.178780	-102.063300	 5.928662	 93.403610	 17.053170	 54.252440	 12.422450	 4.721195	-0.244032	-0.073806	 19.934170	-3.809432	-14.749390	 7.734080	-13.015540	 1.549974	-5.880911	 18.629010	 2.062539	 5.338247	 4.497640	-0.166162	 2.858072	-6.763022	 2.845628	-2.112361	-8.640091	 19.006690	 114.967200	 11.481800	-95.022350	-7.140007	 38.476510	 2.943438	-4.806155	-0.188896	 0.050682	-43.379850	-2.260908	-29.858840	-5.312299	 14.230300	 1.073871	 16.773290	 48.177560	-13.204730	-8.432256	 33.155810	-1.872287
-0.058522	 1.225393	-0.000303	-3.338491	-6.196911	 139.205700	-154.568100	 11.900820	-61.923080	 9.289377	-31.229370	 5.422640	-15.974100	 73.484790	 7.095498	 1.129446	 26.246820	-2.646849	 177.192200	 26.486720	-0.749754	-2.839162	-33.175440	-6.494521	-31.368050	 69.572080	 36.391730	-1.280697	 28.262810	 2.707019	 9.060605	 2.531547	-17.904380	 8.424655	 7.888142	-6.236631	-2.984013	-7.617395	 12.383190	-99.369540	 4.524662	 93.219930	 10.711580	 52.324010	 13.664640	 4.714037	-0.243611	-0.073828	 15.335740	-2.510845	-23.242200	 8.129488	-14.283970	 1.912283	-5.878100	 18.962130	 2.098778	 5.360921	 5.029864	-0.156670	 2.807300	-6.527608	 3.431408	-2.490269	-8.857100	 22.868220	 110.727800	 10.990010	-91.070690	-6.527397	 33.951150	 10.760540	-4.987291	-0.195959	 0.049996	-61.101940	-3.664202	-21.119680	-5.788345	 15.681530	 1.175288	 18.041600	 51.787810	-14.964580	-8.373844	 36.014610	-2.091686
-0.086963	 1.210962	-0.023416	-3.821537	-5.963913	 133.457900	-153.154900	 11.257860	-67.693380	 11.851610	-37.647670	 9.829003	-8.614847	 79.417300	-0.784812	 1.125244	 26.189530	-2.645220	 177.405000	 28.978630	-4.882068	-3.226674	-36.609920	-7.895491	-32.680190	 70.200000	 39.620030	-1.295878	 28.462350	 2.713451	 9.457767	 2.692651	-21.184110	 9.147039	 8.528472	-7.851160	-3.648923	-7.903788	 14.455150	-96.513440	 3.086467	 93.029330	 0.830390	 51.374070	 17.760420	 4.728595	-0.244427	-0.073798	 11.568610	 3.829866	-28.324410	 8.069845	-14.352530	 2.050277	-5.877522	 19.034330	 2.106642	 5.366039	 5.150145	-0.154557	 2.876316	-6.104634	 4.047750	-3.228262	-9.078182	 26.607890	 103.495600	 8.348753	-82.661000	 17.487050	 32.199730	 8.259347	-55.787960	-1.863483	-0.927952	-49.001430	-10.975070	 1.279310	-6.050119	 16.500590	 1.245761	 18.788380	 53.589150	-15.953950	-8.338013	 37.468310	-2.207809
-0.120163	 1.192792	-0.055735	-2.666897	-5.723433	 133.065600	-151.994300	 12.246520	-67.873210	 15.121030	-44.416310	 12.425470	-7.948959	 85.070970	-1.071292	 1.130490	 26.269350	-2.654922	 175.615900	 29.587430	-3.844860	-3.649254	-40.033230	-7.792401	-30.443340	 72.725760	 39.781890	-1.325908	 28.855230	 2.726320	 9.873737	 2.587059	-24.999730	 9.865832	 8.445786	-9.733521	-4.166348	-7.575390	 15.422680	-93.622390	 2.085363	 92.864460	-11.372590	 54.084290	 26.423340	 4.791447	-0.247627	-0.073539	 13.779880	 11.630310	-29.077700	 7.947700	-14.144160	 2.071044	-5.877271	 19.065110	 2.109994	 5.368480	 5.207318	-0.153554	 3.547432	-5.428835	 4.428785	-4.625567	-9.021092	 28.971360	 93.420130	 0.572993	-69.758500	 17.164590	 23.136010	 17.759990	-89.141480	-2.252802	-2.160740	-21.142100	-28.792630	 36.176790	-6.024116	 16.503530	 1.245330	 18.828660	 53.680640	-16.006510	-8.337532	 37.486590	-2.209288
-0.132160	 1.204938	-0.081547	 3.337531	-5.780606	 150.443900	-153.036700	 17.296180	-50.650030	 14.845760	-43.902270	 6.831448	-36.894840	 80.934860	 29.555190	 1.231148	 27.655500	-2.730451	 171.854700	 18.424900	 15.097700	-2.839457	-33.178620	 0.922670	-5.626882	 74.487710	 13.039810	-1.388743	 29.668240	 2.753862	 8.235487	 0.832461	-22.937880	 8.233687	 7.335511	-8.365369	-3.629434	-6.728066	 12.015120	-91.634190	 0.070594	 92.632060	-4.950688	 59.168680	 23.044280	 4.950174	-0.255800	-0.072809	 24.189740	-0.930988	-28.499870	 7.955048	-14.018650	 2.029594	-5.877384	 19.050060	 2.108342	 5.355111	 4.893084	-0.159093	 6.234561	-5.312199	 3.078404	-3.540776	-6.562339	 23.761030	 85.474210	-11.271270	-55.411620	-4.047568	 28.925550	 40.305260	-113.103600	-2.072522	-3.078418	 21.341690	-38.504850	 55.852730	-5.913211	 16.145340	 1.211765	 18.834990	 53.694970	-16.014780	-8.339118	 37.426010	-2.204384
-0.124933	 1.251878	-0.075202	 8.608340	-2.309562	 177.780900	-160.425900	 20.082910	-17.937260	 9.752256	-32.466600	 8.377145	-8.556985	 65.563770	-2.128156	 1.809641	 34.789740	-2.876611	 172.513700	 6.649282	 40.468620	-2.204624	-26.918940	 12.569120	 16.554390	 66.515950	-16.335860	-2.354723	 40.622810	 3.269645	-1.463105	 2.106215	 0.952397	 0.538171	 5.174642	 0.297240	-0.403505	-5.163406	 3.571296	-97.651880	 1.837016	 93.076160	 55.815330	 41.227430	-6.422564	 5.080204	-0.262580	-0.072158	 41.270160	-1.012077	-7.857189	 4.721208	 33.072200	-2.025052	-6.755546	 47.956150	 5.903596	 6.211320	 25.396210	 0.056688	 5.637753	-8.987864	-1.528024	 6.127409	-4.614960	 2.553146	 76.948170	-3.056434	-39.048370	-21.209100	 13.044820	 31.950150	-54.162220	-1.826846	-0.875598	-8.295855	-33.400290	-12.153590	-5.142811	 0.256498	 0.197484	 12.908620	 27.304900	-6.257819	-8.511537	 14.445610	-0.610394
-0.090682	 1.266041	-0.068620	 12.882480	-3.977870	-162.187200	-162.386600	 25.917550	 0.631394	 6.773625	-23.894660	 9.454948	 1.685238	 59.548400	-9.824084	 1.613096	 32.513550	-2.919437	 172.851200	 13.441360	 44.085780	-3.357739	-37.706240	 5.945293	 6.997414	 62.156190	-3.236818	-4.075284	 53.992310	 4.490541	-4.719237	 4.736392	 10.696220	-4.248307	 8.618810	 5.080983	 1.319399	-8.459925	-2.157253	-101.297100	 3.824419	 93.479370	 58.477830	 34.747860	-16.284650	 4.717564	-0.243821	-0.073807	 49.208040	 6.864690	-5.645180	 3.716867	 55.404770	-2.106364	-8.810712	 61.600990	 9.128854	 6.613940	 34.421260	 0.048647	 3.342427	-11.502550	-3.415038	 5.763772	-8.055581	-9.690022	 99.599040	 26.639430	-97.151670	-45.232230	 24.977600	 0.054910	-7.043805	-0.276426	 0.041527	-8.040293	 3.698454	-12.561940	-4.636501	-10.964580	-0.636271	 11.955740	 6.461430	-1.485044	-8.236923	-2.245826	 0.455019
-0.100253	 1.232558	-0.059505	 11.726940	-6.613560	-160.994100	-166.423600	 33.086610	 0.400370	 10.086370	-33.337980	 13.209840	 13.769930	 69.290730	-19.359590	 1.143730	 26.441190	-2.652442	 173.481000	 13.306420	 42.502070	-2.921952	-33.933770	 8.896980	 16.840370	 77.143750	-13.178870	-2.036729	 37.330740	 3.082383	-4.875698	 5.260375	 15.694400	-4.873261	 9.909943	 6.487417	 1.595148	-10.085650	-2.250602	-103.399100	 2.675131	 93.086480	 35.852590	 46.495660	 2.496086	 4.594924	-0.237499	-0.074358	 21.860350	 8.206093	 36.545230	 3.883236	 55.113530	-2.227800	-8.798965	 61.552640	 9.113103	 6.614053	 34.423830	 0.048657	 3.997047	-12.026360	-3.886493	 4.781326	-9.600446	-11.390650	 103.234800	 27.531670	-97.900150	-35.122190	 43.477150	-10.617110	-13.877570	-0.540725	-0.007251	 6.163480	-3.798469	-33.911930	-4.896757	 13.075640	-0.626045	 14.079500	 36.468850	-8.844529	-8.484499	 29.634390	-1.615631
